<svg height="1070" width="720" xmlns="http://www.w3.org/2000/svg">
<rect height="1070" fill="#555" width="720"></rect>
<text fill="#7f7" font-family="Courier New" font-size="12" xml:space="preserve">
<tspan x="10" y="26">6 megabytes installed</tspan>
<tspan x="10" y="42"></tspan>
<tspan x="10" y="58">node_modules</tspan>
<tspan x="10" y="74">└─┬ gulp-dom-src@0.2.0 </tspan>
<tspan x="10" y="90">  ├── async@0.9.2 </tspan>
<tspan x="10" y="106">  ├─┬ cheerio@0.13.1 </tspan>
<tspan x="10" y="122">  │ ├─┬ CSSselect@0.4.1 </tspan>
<tspan x="10" y="138">  │ │ ├── CSSwhat@0.4.7 </tspan>
<tspan x="10" y="154">  │ │ └── domutils@1.4.3 </tspan>
<tspan x="10" y="170">  │ ├── entities@0.5.0 </tspan>
<tspan x="10" y="186">  │ ├─┬ htmlparser2@3.4.0 </tspan>
<tspan x="10" y="202">  │ │ ├── domelementtype@1.3.0 </tspan>
<tspan x="10" y="218">  │ │ ├── domhandler@2.2.1 </tspan>
<tspan x="10" y="234">  │ │ ├── domutils@1.3.0 </tspan>
<tspan x="10" y="250">  │ │ └── readable-stream@1.1.14 </tspan>
<tspan x="10" y="266">  │ └── underscore@1.5.2 </tspan>
<tspan x="10" y="282">  ├── extend@2.0.1 </tspan>
<tspan x="10" y="298">  ├─┬ through2@0.4.2 </tspan>
<tspan x="10" y="314">  │ ├─┬ readable-stream@1.0.34 </tspan>
<tspan x="10" y="330">  │ │ ├── core-util-is@1.0.2 </tspan>
<tspan x="10" y="346">  │ │ ├── inherits@2.0.3 </tspan>
<tspan x="10" y="362">  │ │ ├── isarray@0.0.1 </tspan>
<tspan x="10" y="378">  │ │ └── string_decoder@0.10.31 </tspan>
<tspan x="10" y="394">  │ └─┬ xtend@2.1.2 </tspan>
<tspan x="10" y="410">  │   └── object-keys@0.4.0 </tspan>
<tspan x="10" y="426">  ├─┬ vinyl-file@1.1.1 </tspan>
<tspan x="10" y="442">  │ ├─┬ graceful-fs@3.0.11 </tspan>
<tspan x="10" y="458">  │ │ └── natives@1.1.0 </tspan>
<tspan x="10" y="474">  │ ├─┬ strip-bom@1.0.0 </tspan>
<tspan x="10" y="490">  │ │ ├── first-chunk-stream@1.0.0 </tspan>
<tspan x="10" y="506">  │ │ └── is-utf8@0.2.1 </tspan>
<tspan x="10" y="522">  │ └─┬ vinyl@0.4.6 </tspan>
<tspan x="10" y="538">  │   ├── clone@0.2.0 </tspan>
<tspan x="10" y="554">  │   └── clone-stats@0.0.1 </tspan>
<tspan x="10" y="570">  └─┬ vinyl-fs@0.1.4 </tspan>
<tspan x="10" y="586">    ├─┬ glob-stream@3.1.18 </tspan>
<tspan x="10" y="602">    │ ├─┬ glob@4.5.3 </tspan>
<tspan x="10" y="618">    │ │ ├─┬ inflight@1.0.6 </tspan>
<tspan x="10" y="634">    │ │ │ └── wrappy@1.0.2 </tspan>
<tspan x="10" y="650">    │ │ └── once@1.4.0 </tspan>
<tspan x="10" y="666">    │ ├─┬ glob2base@0.0.12 </tspan>
<tspan x="10" y="682">    │ │ └── find-index@0.1.1 </tspan>
<tspan x="10" y="698">    │ ├─┬ minimatch@2.0.10 </tspan>
<tspan x="10" y="714">    │ │ └─┬ brace-expansion@1.1.7 </tspan>
<tspan x="10" y="730">    │ │   ├── balanced-match@0.4.2 </tspan>
<tspan x="10" y="746">    │ │   └── concat-map@0.0.1 </tspan>
<tspan x="10" y="762">    │ ├── ordered-read-streams@0.1.0 </tspan>
<tspan x="10" y="778">    │ ├─┬ through2@0.6.5 </tspan>
<tspan x="10" y="794">    │ │ ├── readable-stream@1.0.34 </tspan>
<tspan x="10" y="810">    │ │ └── xtend@4.0.1 </tspan>
<tspan x="10" y="826">    │ └── unique-stream@1.0.0 </tspan>
<tspan x="10" y="842">    ├─┬ glob-watcher@0.0.6 </tspan>
<tspan x="10" y="858">    │ └─┬ gaze@0.5.2 </tspan>
<tspan x="10" y="874">    │   └─┬ globule@0.1.0 </tspan>
<tspan x="10" y="890">    │     ├─┬ glob@3.1.21 </tspan>
<tspan x="10" y="906">    │     │ ├── graceful-fs@1.2.3 </tspan>
<tspan x="10" y="922">    │     │ └── inherits@1.0.2 </tspan>
<tspan x="10" y="938">    │     ├── lodash@1.0.2 </tspan>
<tspan x="10" y="954">    │     └─┬ minimatch@0.2.14 </tspan>
<tspan x="10" y="970">    │       ├── lru-cache@2.7.3 </tspan>
<tspan x="10" y="986">    │       └── sigmund@1.0.1 </tspan>
<tspan x="10" y="1002">    ├── graceful-fs@2.0.3 </tspan>
<tspan x="10" y="1018">    ├── map-stream@0.1.0 </tspan>
<tspan x="10" y="1034">    ├── mkdirp@0.3.5 </tspan>
<tspan x="10" y="1050">    └── vinyl@0.2.3</tspan>
</text>
</svg>
